<svg width="22" height="24" viewBox="0 0 22 24" fill="none" xmlns="http://www.w3.org/2000/svg">
<path d="M19.1667 2.99996H14.29C13.8 1.64663 12.5167 0.666626 11 0.666626C9.48333 0.666626 8.2 1.64663 7.71 2.99996H2.83333C1.55 2.99996 0.5 4.04996 0.5 5.33329V21.6666C0.5 22.95 1.55 24 2.83333 24H19.1667C20.45 24 21.5 22.95 21.5 21.6666V5.33329C21.5 4.04996 20.45 2.99996 19.1667 2.99996ZM11 2.99996C11.6417 2.99996 12.1667 3.52496 12.1667 4.16663C12.1667 4.80829 11.6417 5.33329 11 5.33329C10.3583 5.33329 9.83333 4.80829 9.83333 4.16663C9.83333 3.52496 10.3583 2.99996 11 2.99996ZM12.1667 19.3333H6.33333C5.69167 19.3333 5.16667 18.8083 5.16667 18.1666C5.16667 17.525 5.69167 17 6.33333 17H12.1667C12.8083 17 13.3333 17.525 13.3333 18.1666C13.3333 18.8083 12.8083 19.3333 12.1667 19.3333ZM15.6667 14.6666H6.33333C5.69167 14.6666 5.16667 14.1416 5.16667 13.5C5.16667 12.8583 5.69167 12.3333 6.33333 12.3333H15.6667C16.3083 12.3333 16.8333 12.8583 16.8333 13.5C16.8333 14.1416 16.3083 14.6666 15.6667 14.6666ZM15.6667 9.99996H6.33333C5.69167 9.99996 5.16667 9.47496 5.16667 8.83329C5.16667 8.19163 5.69167 7.66663 6.33333 7.66663H15.6667C16.3083 7.66663 16.8333 8.19163 16.8333 8.83329C16.8333 9.47496 16.3083 9.99996 15.6667 9.99996Z" fill="black"/>
</svg>
