<svg xmlns="http://www.w3.org/2000/svg" width="24" height="25" viewBox="0 0 24 25" fill="none">
  <g clip-path="url(#clip0_172_331)">
    <path d="M20 9.19001V6.50001C20 5.40001 19.1 4.50001 18 4.50001H15.31L13.41 2.60001C12.63 1.82001 11.36 1.82001 10.58 2.60001L8.69001 4.50001H6.00001C4.90001 4.50001 4.00001 5.40001 4.00001 6.50001V9.19001L2.10001 11.09C1.32001 11.87 1.32001 13.14 2.10001 13.92L4.00001 15.82V18.5C4.00001 19.6 4.90001 20.5 6.00001 20.5H8.69001L10.59 22.4C11.37 23.18 12.64 23.18 13.42 22.4L15.32 20.5H18C19.1 20.5 20 19.6 20 18.5V15.81L21.9 13.91C22.68 13.13 22.68 11.86 21.9 11.08L20 9.19001ZM12 18.5C8.69001 18.5 6.00001 15.81 6.00001 12.5C6.00001 9.19001 8.69001 6.50001 12 6.50001C15.31 6.50001 18 9.19001 18 12.5C18 15.81 15.31 18.5 12 18.5ZM12 8.50001C9.79001 8.50001 8.00001 10.29 8.00001 12.5C8.00001 14.71 9.79001 16.5 12 16.5C14.21 16.5 16 14.71 16 12.5C16 10.29 14.21 8.50001 12 8.50001Z" fill="black"/>
  </g>
  <defs>
    <clipPath id="clip0_172_331">
      <rect width="24" height="24" fill="white" transform="translate(0 0.5)"/>
    </clipPath>
  </defs>
</svg>