<svg width="26" height="26" viewBox="0 0 26 26" fill="none" xmlns="http://www.w3.org/2000/svg">
<path d="M22.3333 9.13841V6.00008C22.3333 4.71674 21.2833 3.66674 20 3.66674H16.8617L14.645 1.45008C13.735 0.540078 12.2533 0.540078 11.3433 1.45008L9.13833 3.66674H6C4.71667 3.66674 3.66667 4.71674 3.66667 6.00008V9.13841L1.45 11.3551C0.540002 12.2651 0.540002 13.7467 1.45 14.6567L3.66667 16.8734V20.0001C3.66667 21.2834 4.71667 22.3334 6 22.3334H9.13833L11.355 24.5501C12.265 25.4601 13.7467 25.4601 14.6567 24.5501L16.8733 22.3334H20C21.2833 22.3334 22.3333 21.2834 22.3333 20.0001V16.8617L24.55 14.6451C25.46 13.7351 25.46 12.2534 24.55 11.3434L22.3333 9.13841ZM13 20.0001C9.13833 20.0001 6 16.8617 6 13.0001C6 9.13841 9.13833 6.00008 13 6.00008C16.8617 6.00008 20 9.13841 20 13.0001C20 16.8617 16.8617 20.0001 13 20.0001ZM13 8.33341C10.4217 8.33341 8.33333 10.4217 8.33333 13.0001C8.33333 15.5784 10.4217 17.6667 13 17.6667C15.5783 17.6667 17.6667 15.5784 17.6667 13.0001C17.6667 10.4217 15.5783 8.33341 13 8.33341Z" fill="#656565"/>
</svg>
