<svg xmlns="http://www.w3.org/2000/svg" width="24" height="25" viewBox="0 0 24 25" fill="none">
  <g clip-path="url(#clip0_173_62)">
    <path d="M12 8.5C9.79 8.5 8 10.29 8 12.5C8 14.71 9.79 16.5 12 16.5C14.21 16.5 16 14.71 16 12.5C16 10.29 14.21 8.5 12 8.5ZM4 15.5C3.45 15.5 3 15.95 3 16.5V19.5C3 20.6 3.9 21.5 5 21.5H8C8.55 21.5 9 21.05 9 20.5C9 19.95 8.55 19.5 8 19.5H6C5.45 19.5 5 19.05 5 18.5V16.5C5 15.95 4.55 15.5 4 15.5ZM5 6.5C5 5.95 5.45 5.5 6 5.5H8C8.55 5.5 9 5.05 9 4.5C9 3.95 8.55 3.5 8 3.5H5C3.9 3.5 3 4.4 3 5.5V8.5C3 9.05 3.45 9.5 4 9.5C4.55 9.5 5 9.05 5 8.5V6.5ZM19 3.5H16C15.45 3.5 15 3.95 15 4.5C15 5.05 15.45 5.5 16 5.5H18C18.55 5.5 19 5.95 19 6.5V8.5C19 9.05 19.45 9.5 20 9.5C20.55 9.5 21 9.05 21 8.5V5.5C21 4.4 20.1 3.5 19 3.5ZM19 18.5C19 19.05 18.55 19.5 18 19.5H16C15.45 19.5 15 19.95 15 20.5C15 21.05 15.45 21.5 16 21.5H19C20.1 21.5 21 20.6 21 19.5V16.5C21 15.95 20.55 15.5 20 15.5C19.45 15.5 19 15.95 19 16.5V18.5Z" fill="black" />
  </g>
  <defs>
    <clipPath id="clip0_173_62">
      <rect width="24" height="24" fill="white" transform="translate(0 0.5)" />
    </clipPath>
  </defs>
</svg>