<svg width="20" height="20" viewBox="0 0 20 20" fill="none" xmlns="http://www.w3.org/2000/svg">
<path d="M5 12.5H11.025C11.3083 12.5 11.5417 12.404 11.725 12.212C11.9083 12.0207 12 11.7833 12 11.5C12 11.2167 11.9043 10.979 11.713 10.787C11.521 10.5957 11.2833 10.5 11 10.5H4.975C4.69167 10.5 4.45833 10.5957 4.275 10.787C4.09167 10.979 4 11.2167 4 11.5C4 11.7833 4.09567 12.0207 4.287 12.212C4.479 12.404 4.71667 12.5 5 12.5ZM5 9.5H15.025C15.3083 9.5 15.5417 9.404 15.725 9.212C15.9083 9.02067 16 8.78333 16 8.5C16 8.21667 15.904 7.979 15.712 7.787C15.5207 7.59567 15.2833 7.5 15 7.5H4.975C4.69167 7.5 4.45833 7.59567 4.275 7.787C4.09167 7.979 4 8.21667 4 8.5C4 8.78333 4.09567 9.02067 4.287 9.212C4.479 9.404 4.71667 9.5 5 9.5ZM5 6.5H15.025C15.3083 6.5 15.5417 6.40433 15.725 6.213C15.9083 6.021 16 5.78333 16 5.5C16 5.21667 15.904 4.979 15.712 4.787C15.5207 4.59567 15.2833 4.5 15 4.5H4.975C4.69167 4.5 4.45833 4.59567 4.275 4.787C4.09167 4.979 4 5.21667 4 5.5C4 5.78333 4.09567 6.021 4.287 6.213C4.479 6.40433 4.71667 6.5 5 6.5ZM0 18.075V2.5C0 1.95 0.196 1.479 0.588 1.087C0.979333 0.695667 1.45 0.5 2 0.5H18C18.55 0.5 19.021 0.695667 19.413 1.087C19.8043 1.479 20 1.95 20 2.5V14.5C20 15.05 19.8043 15.521 19.413 15.913C19.021 16.3043 18.55 16.5 18 16.5H4L1.7 18.8C1.38333 19.1167 1.02067 19.1873 0.612 19.012C0.204 18.8373 0 18.525 0 18.075ZM2 15.675L3.175 14.5H18V2.5H2V15.675Z" fill="black"/>
</svg>
