<svg width="14" height="15" viewBox="0 0 14 15" fill="none" xmlns="http://www.w3.org/2000/svg">
<path d="M13.3 1.20997C12.91 0.819971 12.28 0.819971 11.89 1.20997L7 6.08997L2.11 1.19997C1.72 0.809971 1.09 0.809971 0.700001 1.19997C0.310001 1.58997 0.310001 2.21997 0.700001 2.60997L5.59 7.49997L0.700001 12.39C0.310001 12.78 0.310001 13.41 0.700001 13.8C1.09 14.19 1.72 14.19 2.11 13.8L7 8.90997L11.89 13.8C12.28 14.19 12.91 14.19 13.3 13.8C13.69 13.41 13.69 12.78 13.3 12.39L8.41 7.49997L13.3 2.60997C13.68 2.22997 13.68 1.58997 13.3 1.20997Z" fill="black"/>
</svg>
