<svg xmlns="http://www.w3.org/2000/svg" width="24" height="25" viewBox="0 0 24 25" fill="none">
  <path d="M6.5 20.5C4.98333 20.5 3.68767 19.975 2.613 18.925C1.53767 17.875 1 16.5917 1 15.075C1 13.775 1.39167 12.6167 2.175 11.6C2.95833 10.5833 3.98333 9.93333 5.25 9.65C5.66667 8.11667 6.5 6.875 7.75 5.925C9 4.975 10.4167 4.5 12 4.5C13.95 4.5 15.604 5.179 16.962 6.537C18.3207 7.89567 19 9.55 19 11.5C20.15 11.6333 21.1043 12.129 21.863 12.987C22.621 13.8457 23 14.85 23 16C23 17.25 22.5627 18.3127 21.688 19.188C20.8127 20.0627 19.75 20.5 18.5 20.5H13C12.45 20.5 11.9793 20.3043 11.588 19.913C11.196 19.521 11 19.05 11 18.5V13.3L10.1 14.2C9.91667 14.3833 9.68333 14.475 9.4 14.475C9.11667 14.475 8.88333 14.3833 8.7 14.2C8.51667 14.0167 8.425 13.7833 8.425 13.5C8.425 13.2167 8.51667 12.9833 8.7 12.8L11.3 10.2C11.4 10.1 11.5083 10.029 11.625 9.987C11.7417 9.94567 11.8667 9.925 12 9.925C12.1333 9.925 12.2583 9.94567 12.375 9.987C12.4917 10.029 12.6 10.1 12.7 10.2L15.3 12.8C15.4833 12.9833 15.575 13.2167 15.575 13.5C15.575 13.7833 15.4833 14.0167 15.3 14.2C15.1167 14.3833 14.8833 14.475 14.6 14.475C14.3167 14.475 14.0833 14.3833 13.9 14.2L13 13.3V18.5H18.5C19.2 18.5 19.7917 18.2583 20.275 17.775C20.7583 17.2917 21 16.7 21 16C21 15.3 20.7583 14.7083 20.275 14.225C19.7917 13.7417 19.2 13.5 18.5 13.5H17V11.5C17 10.1167 16.5127 8.93733 15.538 7.962C14.5627 6.98733 13.3833 6.5 12 6.5C10.6167 6.5 9.43767 6.98733 8.463 7.962C7.48767 8.93733 7 10.1167 7 11.5H6.5C5.53333 11.5 4.70833 11.8417 4.025 12.525C3.34167 13.2083 3 14.0333 3 15C3 15.9667 3.34167 16.7917 4.025 17.475C4.70833 18.1583 5.53333 18.5 6.5 18.5H8C8.28333 18.5 8.521 18.596 8.713 18.788C8.90433 18.9793 9 19.2167 9 19.5C9 19.7833 8.90433 20.0207 8.713 20.212C8.521 20.404 8.28333 20.5 8 20.5H6.5Z" fill="black"/>
</svg>