<svg width="14" height="19" viewBox="0 0 14 19" fill="none" xmlns="http://www.w3.org/2000/svg">
<path d="M1 16.5C1 17.6 1.9 18.5 3 18.5H11C12.1 18.5 13 17.6 13 16.5V6.5C13 5.4 12.1 4.5 11 4.5H3C1.9 4.5 1 5.4 1 6.5V16.5ZM4 6.5H10C10.55 6.5 11 6.95 11 7.5V15.5C11 16.05 10.55 16.5 10 16.5H4C3.45 16.5 3 16.05 3 15.5V7.5C3 6.95 3.45 6.5 4 6.5ZM10.5 1.5L9.79 0.79C9.61 0.61 9.35 0.5 9.09 0.5H4.91C4.65 0.5 4.39 0.61 4.21 0.79L3.5 1.5H1C0.45 1.5 0 1.95 0 2.5C0 3.05 0.45 3.5 1 3.5H13C13.55 3.5 14 3.05 14 2.5C14 1.95 13.55 1.5 13 1.5H10.5Z" fill="black"/>
</svg>
