<svg width="44" height="44" viewBox="0 0 44 44" fill="none" xmlns="http://www.w3.org/2000/svg">
<path d="M22.0001 3.66699C11.8801 3.66699 3.66675 11.8803 3.66675 22.0003C3.66675 32.1203 11.8801 40.3337 22.0001 40.3337C32.1201 40.3337 40.3334 32.1203 40.3334 22.0003C40.3334 11.8803 32.1201 3.66699 22.0001 3.66699ZM22.0001 23.8337C20.9917 23.8337 20.1667 23.0087 20.1667 22.0003V14.667C20.1667 13.6587 20.9917 12.8337 22.0001 12.8337C23.0084 12.8337 23.8334 13.6587 23.8334 14.667V22.0003C23.8334 23.0087 23.0084 23.8337 22.0001 23.8337ZM23.8334 31.167H20.1667V27.5003H23.8334V31.167Z" fill="#B2B2B2"/>
</svg>
