<svg xmlns="http://www.w3.org/2000/svg" width="24" height="25" viewBox="0 0 24 25" fill="none">
  <g clip-path="url(#clip0_172_380)">
    <path d="M19.66 4.48998C17.02 2.68998 13.76 3.52998 12 5.58998C10.24 3.52998 6.98 2.67998 4.34 4.48998C2.94 5.44998 2.06 7.06998 2 8.77998C1.86 12.66 5.3 15.77 10.55 20.54L10.65 20.63C11.41 21.32 12.58 21.32 13.34 20.62L13.45 20.52C18.7 15.76 22.13 12.65 22 8.76998C21.94 7.06998 21.06 5.44998 19.66 4.48998ZM12.1 19.05L12 19.15L11.9 19.05C7.14 14.74 4 11.89 4 8.99998C4 6.99998 5.5 5.49998 7.5 5.49998C9.04 5.49998 10.54 6.48998 11.07 7.85998H12.94C13.46 6.48998 14.96 5.49998 16.5 5.49998C18.5 5.49998 20 6.99998 20 8.99998C20 11.89 16.86 14.74 12.1 19.05Z" fill="black"/>
  </g>
  <defs>
    <clipPath id="clip0_172_380">
      <rect width="24" height="24" fill="white" transform="translate(0 0.5)"/>
    </clipPath>
  </defs>
</svg>