<svg width="20" height="21" viewBox="0 0 20 21" fill="none" xmlns="http://www.w3.org/2000/svg">
<path d="M2.99999 21C2.35832 21 1.80921 20.7718 1.35266 20.3152C0.895323 19.8579 0.666656 19.3084 0.666656 18.6667V8.16671C0.666656 7.79726 0.74949 7.44726 0.915156 7.11671C1.08005 6.78615 1.30832 6.51393 1.59999 6.30004L8.59999 1.05004C8.81388 0.894485 9.03749 0.777818 9.27082 0.700041C9.50416 0.622263 9.74721 0.583374 9.99999 0.583374C10.2528 0.583374 10.4958 0.622263 10.7292 0.700041C10.9625 0.777818 11.1861 0.894485 11.4 1.05004L18.4 6.30004C18.6917 6.51393 18.9203 6.78615 19.086 7.11671C19.2509 7.44726 19.3333 7.79726 19.3333 8.16671V18.6667C19.3333 19.3084 19.105 19.8579 18.6485 20.3152C18.1912 20.7718 17.6417 21 17 21H12.3333V12.8334H7.66666V21H2.99999Z" fill="black"/>
</svg>
