<svg width="20" height="19" viewBox="0 0 20 19" fill="none" xmlns="http://www.w3.org/2000/svg">
<path d="M17.66 1.48998C15.02 -0.310017 11.76 0.529983 10 2.58998C8.24 0.529983 4.98 -0.320017 2.34 1.48998C0.94 2.44998 0.0599996 4.06998 -3.99537e-07 5.77998C-0.14 9.65998 3.3 12.77 8.55 17.54L8.65 17.63C9.41 18.32 10.58 18.32 11.34 17.62L11.45 17.52C16.7 12.76 20.13 9.64998 20 5.76998C19.94 4.06998 19.06 2.44998 17.66 1.48998ZM10.1 16.05L10 16.15L9.9 16.05C5.14 11.74 2 8.88998 2 5.99998C2 3.99998 3.5 2.49998 5.5 2.49998C7.04 2.49998 8.54 3.48998 9.07 4.85998H10.94C11.46 3.48998 12.96 2.49998 14.5 2.49998C16.5 2.49998 18 3.99998 18 5.99998C18 8.88998 14.86 11.74 10.1 16.05Z" fill="black"/>
</svg>
