<svg width="16" height="20" viewBox="0 0 16 20" fill="none" xmlns="http://www.w3.org/2000/svg">
<path d="M15.29 14.79L14 13.5V8.5C14 5.43 12.36 2.86 9.49999 2.18V1.5C9.49999 0.67 8.82999 0 7.99999 0C7.16999 0 6.49999 0.67 6.49999 1.5V2.18C3.62999 2.86 1.99999 5.42 1.99999 8.5V13.5L0.70999 14.79C0.0799904 15.42 0.51999 16.5 1.40999 16.5H14.58C15.48 16.5 15.92 15.42 15.29 14.79ZM12 14.5H3.99999V8.5C3.99999 6.02 5.50999 4 7.99999 4C10.49 4 12 6.02 12 8.5V14.5ZM7.99999 19.5C9.09999 19.5 9.99999 18.6 9.99999 17.5H5.99999C5.99999 18.6 6.88999 19.5 7.99999 19.5Z" fill="black"/>
</svg>
