<svg width="19" height="21" viewBox="0 0 19 21" fill="none" xmlns="http://www.w3.org/2000/svg">
<path d="M11.3333 3.00008L10.4933 1.30841C10.295 0.911748 9.88666 0.666748 9.44333 0.666748H1.99999C1.35833 0.666748 0.833328 1.19175 0.833328 1.83341V19.3334C0.833328 19.9751 1.35833 20.5001 1.99999 20.5001C2.64166 20.5001 3.16666 19.9751 3.16666 19.3334V12.3334H8.99999L9.84 14.0251C10.0383 14.4217 10.4467 14.6667 10.8783 14.6667H17.1667C17.8083 14.6667 18.3333 14.1417 18.3333 13.5001V4.16675C18.3333 3.52508 17.8083 3.00008 17.1667 3.00008H11.3333ZM16 12.3334H11.3333L10.1667 10.0001H3.16666V3.00008H8.99999L10.1667 5.33342H16V12.3334Z" fill="#F5907A"/>
</svg>
