<svg width="16" height="17" viewBox="0 0 16 17" fill="none" xmlns="http://www.w3.org/2000/svg">
<path d="M8 16.5C5.76667 16.5 3.875 15.725 2.325 14.175C0.775 12.625 0 10.7333 0 8.5C0 6.26667 0.775 4.375 2.325 2.825C3.875 1.275 5.76667 0.5 8 0.5C9.15 0.5 10.25 0.737666 11.3 1.213C12.35 1.68767 13.25 2.36667 14 3.25V1.5C14 1.21667 14.096 0.979 14.288 0.787C14.4793 0.595667 14.7167 0.5 15 0.5C15.2833 0.5 15.5207 0.595667 15.712 0.787C15.904 0.979 16 1.21667 16 1.5V6.5C16 6.78333 15.904 7.02067 15.712 7.212C15.5207 7.404 15.2833 7.5 15 7.5H10C9.71667 7.5 9.47933 7.404 9.288 7.212C9.096 7.02067 9 6.78333 9 6.5C9 6.21667 9.096 5.979 9.288 5.787C9.47933 5.59567 9.71667 5.5 10 5.5H13.2C12.6667 4.56667 11.9377 3.83333 11.013 3.3C10.0877 2.76667 9.08333 2.5 8 2.5C6.33333 2.5 4.91667 3.08333 3.75 4.25C2.58333 5.41667 2 6.83333 2 8.5C2 10.1667 2.58333 11.5833 3.75 12.75C4.91667 13.9167 6.33333 14.5 8 14.5C9.15 14.5 10.2127 14.1957 11.188 13.587C12.1627 12.979 12.8917 12.1667 13.375 11.15C13.4583 10.9667 13.596 10.8127 13.788 10.688C13.9793 10.5627 14.175 10.5 14.375 10.5C14.7583 10.5 15.046 10.6333 15.238 10.9C15.4293 11.1667 15.45 11.4667 15.3 11.8C14.6667 13.2167 13.6917 14.354 12.375 15.212C11.0583 16.0707 9.6 16.5 8 16.5Z" fill="black"/>
</svg>
