<svg width="22" height="21" viewBox="0 0 22 21" fill="none" xmlns="http://www.w3.org/2000/svg">
<path d="M14.8733 0H7.12667C6.82333 0 6.52 0.128333 6.31 0.338333L0.838333 5.81C0.628333 6.02 0.5 6.32333 0.5 6.62667V14.3617C0.5 14.6767 0.628333 14.9683 0.838333 15.19L6.29833 20.65C6.52 20.8717 6.82333 21 7.12667 21H14.8617C15.1767 21 15.4683 20.8717 15.69 20.6617L21.15 15.2017C21.3717 14.98 21.4883 14.6883 21.4883 14.3733V6.62667C21.4883 6.31167 21.36 6.02 21.15 5.79833L15.69 0.338333C15.48 0.128333 15.1767 0 14.8733 0ZM11 16.6833C10.16 16.6833 9.48333 16.0067 9.48333 15.1667C9.48333 14.3267 10.16 13.65 11 13.65C11.84 13.65 12.5167 14.3267 12.5167 15.1667C12.5167 16.0067 11.84 16.6833 11 16.6833ZM11 11.6667C10.3583 11.6667 9.83333 11.1417 9.83333 10.5V5.83333C9.83333 5.19167 10.3583 4.66667 11 4.66667C11.6417 4.66667 12.1667 5.19167 12.1667 5.83333V10.5C12.1667 11.1417 11.6417 11.6667 11 11.6667Z" fill="white"/>
</svg>
