<svg width="22" height="21" viewBox="0 0 22 21" fill="none" xmlns="http://www.w3.org/2000/svg">
<path d="M19 7.19001V4.50001C19 3.40001 18.1 2.50001 17 2.50001H14.31L12.41 0.600015C11.63 -0.179985 10.36 -0.179985 9.58001 0.600015L7.69001 2.50001H5.00001C3.90001 2.50001 3.00001 3.40001 3.00001 4.50001V7.19001L1.10001 9.09001C0.320015 9.87001 0.320015 11.14 1.10001 11.92L3.00001 13.82V16.5C3.00001 17.6 3.90001 18.5 5.00001 18.5H7.69001L9.59001 20.4C10.37 21.18 11.64 21.18 12.42 20.4L14.32 18.5H17C18.1 18.5 19 17.6 19 16.5V13.81L20.9 11.91C21.68 11.13 21.68 9.86001 20.9 9.08001L19 7.19001ZM11 16.5C7.69001 16.5 5.00001 13.81 5.00001 10.5C5.00001 7.19001 7.69001 4.50001 11 4.50001C14.31 4.50001 17 7.19001 17 10.5C17 13.81 14.31 16.5 11 16.5ZM11 6.50001C8.79001 6.50001 7.00001 8.29001 7.00001 10.5C7.00001 12.71 8.79001 14.5 11 14.5C13.21 14.5 15 12.71 15 10.5C15 8.29001 13.21 6.50001 11 6.50001Z" fill="black"/>
</svg>
