<svg width="23" height="17" viewBox="0 0 23 17" fill="none" xmlns="http://www.w3.org/2000/svg">
<path d="M6 16.5C4.48333 16.5 3.18767 15.975 2.113 14.925C1.03767 13.875 0.5 12.5917 0.5 11.075C0.5 9.775 0.891667 8.61667 1.675 7.6C2.45833 6.58333 3.48333 5.93333 4.75 5.65C5.16667 4.11667 6 2.875 7.25 1.925C8.5 0.975 9.91667 0.5 11.5 0.5C13.45 0.5 15.104 1.179 16.462 2.537C17.8207 3.89567 18.5 5.55 18.5 7.5C19.65 7.63333 20.6043 8.129 21.363 8.987C22.121 9.84567 22.5 10.85 22.5 12C22.5 13.25 22.0627 14.3127 21.188 15.188C20.3127 16.0627 19.25 16.5 18 16.5H12.5C11.95 16.5 11.4793 16.3043 11.088 15.913C10.696 15.521 10.5 15.05 10.5 14.5V9.3L9.6 10.2C9.41667 10.3833 9.18333 10.475 8.9 10.475C8.61667 10.475 8.38333 10.3833 8.2 10.2C8.01667 10.0167 7.925 9.78333 7.925 9.5C7.925 9.21667 8.01667 8.98333 8.2 8.8L10.8 6.2C10.9 6.1 11.0083 6.029 11.125 5.987C11.2417 5.94567 11.3667 5.925 11.5 5.925C11.6333 5.925 11.7583 5.94567 11.875 5.987C11.9917 6.029 12.1 6.1 12.2 6.2L14.8 8.8C14.9833 8.98333 15.075 9.21667 15.075 9.5C15.075 9.78333 14.9833 10.0167 14.8 10.2C14.6167 10.3833 14.3833 10.475 14.1 10.475C13.8167 10.475 13.5833 10.3833 13.4 10.2L12.5 9.3V14.5H18C18.7 14.5 19.2917 14.2583 19.775 13.775C20.2583 13.2917 20.5 12.7 20.5 12C20.5 11.3 20.2583 10.7083 19.775 10.225C19.2917 9.74167 18.7 9.5 18 9.5H16.5V7.5C16.5 6.11667 16.0127 4.93733 15.038 3.962C14.0627 2.98733 12.8833 2.5 11.5 2.5C10.1167 2.5 8.93767 2.98733 7.963 3.962C6.98767 4.93733 6.5 6.11667 6.5 7.5H6C5.03333 7.5 4.20833 7.84167 3.525 8.525C2.84167 9.20833 2.5 10.0333 2.5 11C2.5 11.9667 2.84167 12.7917 3.525 13.475C4.20833 14.1583 5.03333 14.5 6 14.5H7.5C7.78333 14.5 8.021 14.596 8.213 14.788C8.40433 14.9793 8.5 15.2167 8.5 15.5C8.5 15.7833 8.40433 16.0207 8.213 16.212C8.021 16.404 7.78333 16.5 7.5 16.5H6Z" fill="#F05A39"/>
</svg>
