<svg width="24" height="17" viewBox="0 0 24 17" fill="none" xmlns="http://www.w3.org/2000/svg">
<path d="M1.49999 2.66671H3.83333C4.475 2.66671 5 3.19171 5 3.83337V13.1667C5 13.8084 4.475 14.3334 3.83333 14.3334H1.49999C0.858328 14.3334 0.333328 13.8084 0.333328 13.1667V3.83337C0.333328 3.19171 0.858328 2.66671 1.49999 2.66671ZM7.33333 16.6667H16.6667C17.3083 16.6667 17.8333 16.1417 17.8333 15.5V1.50004C17.8333 0.858374 17.3083 0.333374 16.6667 0.333374H7.33333C6.69166 0.333374 6.16666 0.858374 6.16666 1.50004V15.5C6.16666 16.1417 6.69166 16.6667 7.33333 16.6667ZM20.1667 2.66671H22.5C23.1417 2.66671 23.6667 3.19171 23.6667 3.83337V13.1667C23.6667 13.8084 23.1417 14.3334 22.5 14.3334H20.1667C19.525 14.3334 19 13.8084 19 13.1667V3.83337C19 3.19171 19.525 2.66671 20.1667 2.66671Z" fill="black"/>
</svg>
